<svg width="85" height="50" viewBox="0 0 85 50" fill="none" xmlns="http://www.w3.org/2000/svg">
<path d="M0 6C0 2.68629 2.68629 0 6 0H79C82.3137 0 85 2.68629 85 6V44C85 47.3137 82.3137 50 79 50H6C2.68629 50 0 47.3137 0 44V6Z" fill="#EBEBEB"/>
<mask id="mask0_623_4990" style="mask-type:luminance" maskUnits="userSpaceOnUse" x="0" y="12" width="85" height="27">
<path d="M85 12H0V38.53H85V12Z" fill="white"/>
</mask>
<g mask="url(#mask0_623_4990)">
<path d="M55.6482 22.2367L55.4913 23.5308H55.6285L53.1579 23.472C52.2755 23.472 51.6677 23.1975 51.3147 22.668V19.0209H55.7854L56.2364 21.9033L55.6678 22.217L55.6482 22.2367ZM49.0009 36.3154C48.7068 36.1389 48.4519 35.9036 48.2558 35.6291C48.1774 35.5311 48.099 35.433 48.0401 35.3154C47.9813 35.2173 47.9421 35.1193 47.9029 35.0016C47.8048 34.7467 47.7264 34.4722 47.7264 34.1781C47.7264 32.7859 48.8637 31.6486 50.2559 31.6486C51.6481 31.6486 52.7853 32.7859 52.7853 34.1781C52.7853 34.4722 52.7069 34.7467 52.6089 35.0016C52.5697 35.0997 52.5304 35.2173 52.4716 35.3154C52.4128 35.433 52.3344 35.5311 52.2559 35.6291C52.0402 35.9036 51.8049 36.1389 51.5108 36.3154C51.1383 36.5311 50.7265 36.7076 50.2559 36.7076C49.7853 36.7076 49.3735 36.5507 49.0009 36.3154ZM47.3931 19.0601H49.7068V22.7269H47.3931V19.0601ZM22.4513 36.2958C22.1376 36.1193 21.8827 35.884 21.667 35.6095C21.5886 35.4918 21.4905 35.3938 21.4317 35.2565C21.3729 35.1585 21.3337 35.0605 21.2945 34.9624C21.1964 34.6879 21.118 34.4134 21.118 34.1193C21.118 32.7271 22.2553 31.5898 23.6474 31.5898C25.0396 31.5898 26.1769 32.7271 26.1769 34.1193C26.1769 34.4134 26.0985 34.6879 26.0004 34.9624C25.9612 35.0605 25.922 35.1585 25.8632 35.2565C25.8044 35.3742 25.7063 35.4918 25.6279 35.6095C25.4122 35.884 25.1573 36.1193 24.8436 36.2958C24.4906 36.4919 24.0788 36.6291 23.6474 36.6291C23.2161 36.6291 22.8043 36.4919 22.4513 36.2762M14.1767 36.2762C13.9021 36.0997 13.6864 35.8644 13.4904 35.6095C13.4315 35.5115 13.3531 35.433 13.3139 35.335C13.2551 35.2369 13.2158 35.1389 13.1766 35.0212C13.0786 34.7663 13.0002 34.4918 13.0002 34.1977C13.0002 32.8055 14.1374 31.6682 15.5296 31.6682C16.9218 31.6682 18.0591 32.8055 18.0591 34.1977C18.0591 34.4918 17.9807 34.7663 17.9022 35.0212C17.863 35.1193 17.8238 35.2369 17.765 35.335C17.7061 35.433 17.6473 35.5311 17.5689 35.6095C17.3728 35.8644 17.1571 36.0997 16.8826 36.2762C16.4904 36.5311 16.0394 36.7272 15.5296 36.7272C15.0198 36.7272 14.5688 36.5311 14.1767 36.2762ZM57.0207 29.2956L59.0208 29.1584L59.2757 25.3348L58.9423 25.2759L57.7855 18.8836L58.1188 18.8052L57.1188 16.6679C56.7462 15.9424 56.1188 15.5306 55.256 15.4326L45.0597 15.0208L44.6871 31.0212L47.2166 31.08C46.8833 31.4133 46.6087 31.8251 46.4127 32.2369H28.9613V30.1976H42.8832V28.0603V11.9619H6V30.1976H10.4903V32.2565H9.39223V36.2174H11.7256C12.4707 37.5703 13.8825 38.4919 15.51 38.4919C17.1375 38.4919 18.5689 37.5703 19.2944 36.237H19.9415C20.6866 37.5115 22.0396 38.3939 23.6278 38.3939C25.2161 38.3939 26.5887 37.5311 27.3534 36.237H46.4911C47.2362 37.5703 48.6284 38.4527 50.2363 38.4527C51.8442 38.4527 53.2363 37.5703 53.9815 36.2566H57.1776L59.0992 36.0605L59.06 35.335L58.5698 35.0997L59.1384 34.2761V31.3153L56.8835 30.08L56.9619 29.2368L57.0207 29.2956Z" fill="#17191B"/>
</g>
</svg>
