<svg width="85" height="50" viewBox="0 0 85 50" fill="none" xmlns="http://www.w3.org/2000/svg">
<path d="M0 6C0 2.68629 2.68629 0 6 0H79C82.3137 0 85 2.68629 85 6V44C85 47.3137 82.3137 50 79 50H6C2.68629 50 0 47.3137 0 44V6Z" fill="#EBEBEB"/>
<mask id="mask0_623_4986" style="mask-type:luminance" maskUnits="userSpaceOnUse" x="0" y="15" width="85" height="20">
<path d="M85 15H0V34.6127H85V15Z" fill="white"/>
</mask>
<g mask="url(#mask0_623_4986)">
<path d="M50.9441 26.1623C48.4286 26.123 48.4876 26.1427 47.0137 24.1185L42.6706 18.2033H51.1603C52.6538 18.2033 52.7324 18.7928 52.9289 19.52L54.7959 26.2213L50.9637 26.182L50.9441 26.1623ZM46.0704 32.9226C44.7734 32.9226 43.7122 31.8614 43.7122 30.5644C43.7122 29.2673 44.7734 28.2061 46.0704 28.2061C47.3674 28.2061 48.409 29.2673 48.409 30.5644C48.409 31.8614 47.3478 32.9226 46.0704 32.9226ZM32.2747 22.8215L32.5105 18.9894H30.4471L30.2113 22.8215H21.7805L22.0164 18.9894H19.9529L19.7171 22.7822H11.4436L10.9916 19.4217C10.913 18.5374 10.7951 18.2622 12.1904 18.2622H40.0569L42.2972 22.8411H32.2747V22.8215ZM20.4246 32.9226C19.1275 32.9226 18.0663 31.8614 18.0663 30.5644C18.0663 29.2673 19.1275 28.2061 20.4246 28.2061C21.7216 28.2061 22.7828 29.2673 22.7828 30.5644C22.7828 31.8614 21.7216 32.9226 20.4246 32.9226ZM58.4119 18.557C57.8026 17.9478 56.9773 17.5744 56.0536 17.5744H55.0121L54.9335 17.3189C54.4422 16.8669 53.4596 16.297 52.1429 16.1791L22.5666 16.1202L20.3263 15H9.16397L7.65077 16.5722L6.9433 22.7036L7.84729 24.0203V28.1275H6C6.21617 30.3286 7.76868 32.1758 10.913 32.7064L13.2123 33.0209H17.2409C17.9877 33.9642 19.1275 34.593 20.4246 34.593C21.7216 34.593 22.8614 33.9642 23.6082 33.0209H42.9064C43.6532 33.9642 44.793 34.593 46.0901 34.593C47.3871 34.593 48.5269 33.9838 49.2737 33.0209H54.4225L55.9357 31.9793C57.4096 30.9771 57.4293 30.3679 57.4489 29.287L55.4641 28.2847L55.1496 27.3218H57.4686V26.3785L57.1738 26.2213L55.2282 19.1859H56.0733C56.5449 19.1859 56.9773 19.3824 57.2917 19.6968C57.6061 20.0113 57.8026 20.4436 57.8026 20.9152V22.5464H59.4141V20.9152C59.4141 19.9916 59.0407 19.1662 58.4315 18.557" fill="#17191B"/>
</g>
</svg>
