<svg width="85" height="50" viewBox="0 0 85 50" fill="none" xmlns="http://www.w3.org/2000/svg">
<path d="M0 6C0 2.68629 2.68629 0 6 0H79C82.3137 0 85 2.68629 85 6V44C85 47.3137 82.3137 50 79 50H6C2.68629 50 0 47.3137 0 44V6Z" fill="#EBEBEB"/>
<path d="M32.752 29.4242C31.68 29.4242 30.816 28.5922 30.816 27.5682C30.816 26.5443 31.68 25.6962 32.752 25.6962C33.824 25.6962 34.688 26.5282 34.688 27.5682C34.688 28.6082 33.824 29.4242 32.752 29.4242ZM26.304 23.1522L26.016 24.0802L18 23.6162L18.32 20.8162L17.184 20.8482L16.8 23.5522L11.584 23.2482L11.312 21.9362L12.72 20.5442C16.416 20.1922 20.464 20.2882 22.288 20.4482L23.904 20.7683L27.584 22.9762L26.336 23.1683L26.304 23.1522ZM20.048 25.2482L17.936 25.0563L17.984 24.5602L20.096 24.7362L20.048 25.2322V25.2482ZM9.472 27.6162C9.472 26.5922 10.352 25.7442 11.408 25.7442C12.464 25.7442 13.344 26.5762 13.344 27.6162C13.344 28.6562 12.48 29.4722 11.408 29.4722C10.336 29.4722 9.472 28.6402 9.472 27.6162ZM37.536 26.7522L35.648 24.9442L36.416 24.7202C34.704 23.8082 32.576 23.2483 30.208 22.8963L25.024 19.7922L22.496 19.1683C17.312 18.8003 12.848 19.0722 9.088 19.6322L9.12 20.3523L9.392 20.8002L8.704 21.5042L9.296 21.7282L7.36 23.9362H6.608C6.4 24.3842 6.416 24.8322 6.416 25.7282H6L6.272 27.9203L6.928 28.9443L8.592 29.1842C9.168 30.1442 10.208 30.8162 11.44 30.8162C12.416 30.8162 13.28 30.3843 13.888 29.7443H30.368C30.976 30.3523 31.824 30.7522 32.768 30.7522C33.776 30.7522 34.64 30.3042 35.264 29.6162L37.296 29.5522L38.48 28.8482L38.576 26.7362H37.568L37.536 26.7522Z" fill="#17191B"/>
</svg>
