<svg width="85" height="50" viewBox="0 0 85 50" fill="none" xmlns="http://www.w3.org/2000/svg">
<path d="M0 6C0 2.68629 2.68629 0 6 0H79C82.3137 0 85 2.68629 85 6V44C85 47.3137 82.3137 50 79 50H6C2.68629 50 0 47.3137 0 44V6Z" fill="#EBEBEB"/>
<path d="M62.57 6.00033L64.711 7.2266L67.2539 7.23243H67.2597V7.29069L67.4199 8.82284H67.2393V8.82867L48.7665 8.96557L41.8719 26.0723H9.50182L5.9948 10.8178H37.1419L45.8485 7.09234L52.8568 7.14768L54.9569 6L62.57 6.00033Z" fill="#17191B"/>
<path d="M51.5862 27.8057C56.3341 27.8057 60.1816 31.6535 60.1816 36.4011C60.1816 41.1491 56.3338 44.9996 51.5862 44.9996C46.8386 44.9996 42.9877 41.1488 42.9877 36.4011C42.9877 31.6532 46.8385 27.8057 51.5862 27.8057ZM51.5891 32.839C49.62 32.839 48.0267 34.4352 48.0267 36.4014C48.0267 38.3675 49.62 39.9637 51.5891 39.9637C53.5552 39.9637 55.1485 38.3675 55.1485 36.4014C55.1485 34.4352 53.5552 32.839 51.5891 32.839Z" fill="#17191B"/>
<path d="M20.5363 27.8057C25.2842 27.8057 29.1348 31.6535 29.1348 36.4011C29.1348 41.1491 25.284 44.9996 20.5363 44.9996C15.7855 44.9996 11.9349 41.1488 11.9349 36.4011C11.9349 31.6532 15.7856 27.8057 20.5363 27.8057ZM20.5363 32.839C18.5702 32.839 16.974 34.4352 16.974 36.4014C16.974 38.3675 18.5702 39.9637 20.5363 39.9637C22.5054 39.9637 24.0987 38.3675 24.0987 36.4014C24.0987 34.4352 22.5054 32.839 20.5363 32.839Z" fill="#17191B"/>
<path d="M16.0038 28.2659C13.5163 29.2155 11.7074 31.5399 11.5065 34.31H9.49955V27.8057H16.0039L16.0038 28.2659Z" fill="#17191B"/>
<path d="M67.6678 24.8513H65.7278V25.8242H67.6939L67.7202 26.7942H65.7278V27.7671H67.7463L67.7726 28.74H65.7277V29.7099H67.7987V32.5004L67.9065 32.6606L68.9551 32.6024L68.8269 35.2036H62.5935L61.6672 35.6492L61.1603 35.5356C61.2099 30.4178 56.5872 26.4532 51.5858 26.4532C46.899 26.4532 43.0544 29.7971 42.3058 33.5109H29.6642C29.6642 31.8623 26.4718 28.3727 25.4697 28.3931V27.7668H43.0574L49.3375 9.99276L62.2765 9.92285H63.9194V10.8637H62.2765L63.9194 20.301L66.8788 22.1827L67.5429 22.9575L67.6678 24.8513ZM50.5663 12.3783C50.1964 13.8434 48.8332 19.2671 48.8332 19.2671H53.2257V12.3783H50.5663ZM61.5591 12.387L54.4402 12.3783L54.5188 19.2671H62.567L61.5591 12.387Z" fill="#17191B"/>
</svg>
