<svg width="80" height="50" viewBox="0 0 80 50" fill="none" xmlns="http://www.w3.org/2000/svg">
<path d="M55.791 28.2578C56.1143 28.1935 56.4705 28.1611 56.8262 28.1611H56.8906C60.2532 28.1612 63.0009 30.9916 63.001 34.4658C63.001 37.94 60.2532 40.7705 56.8906 40.7705C53.528 40.7705 50.7793 37.94 50.7793 34.4658C50.7793 32.1819 51.9436 30.2197 53.6895 29.0938L54.498 31.0234C53.4634 31.7955 52.7842 33.0504 52.7842 34.4658C52.7842 36.8141 54.6273 38.7119 56.8906 38.7119C59.1539 38.7119 60.9971 36.8141 60.9971 34.4658C60.997 32.1176 59.1539 30.2198 56.8906 30.2197H56.4375L56.9873 32.1172C58.1836 32.1815 59.121 33.1147 59.1211 34.4336C59.1211 35.7525 58.1193 36.7821 56.8584 36.7822C55.5974 36.7822 54.5947 35.7203 54.5947 34.4336C54.5948 33.8225 54.8533 33.2756 55.2412 32.8574L56.0176 34.7236L55.3711 32.6963L53.9482 28.0322L55.5654 27.4854L55.791 28.2578ZM50.7148 17C55.4996 19.0909 57.8918 23.2405 57.7627 26.5537L54.3037 27.0684V27.0049C51.3615 28.0665 49.2275 30.9934 49.2275 34.4033C49.2275 35.5614 49.4858 36.6874 49.9385 37.6846L34.4834 37.8457L30.2803 35.3682C29.8276 38.4241 27.3058 40.7401 24.2344 40.7402C20.8718 40.7402 18.1231 37.9097 18.123 34.4355C18.123 30.9613 20.8718 28.1309 24.2344 28.1309C25.7862 28.1309 27.2085 28.742 28.2754 29.707L30.4092 28.5488H32.8994L32.3174 27.8086L25.4951 23.2725L21.5508 21.9863L20.8066 19.5732L27.791 19.96L27.9199 21.9541L28.5986 21.6318L32.6729 22.8545L35.9062 22.9189L35.8418 22.0186L37.5547 20.8926C40.5939 18.8982 44.5065 20.1523 47.9014 20.667L47.998 22.8223L40.1416 26.5859L37.167 25.8789L39.0752 27.0684L41.6934 27.4873L48.1602 24.9131L52.5254 21.793L53.8184 22.4365V22.0186L49.874 18.1904L50.7148 17ZM24.2021 30.2217C21.9389 30.2217 20.0957 32.1195 20.0957 34.4678C20.0958 36.816 21.9389 38.7139 24.2021 38.7139V38.7461C25.9803 38.7459 27.4679 37.5878 28.0498 35.9473L24.6543 36.7842C24.4929 36.8163 24.3636 36.8164 24.2021 36.8164C22.9412 36.8164 21.9386 35.7545 21.9385 34.4678C21.9385 33.374 22.6501 32.5053 23.6201 32.2158L26.2715 30.8008C25.6573 30.4148 24.9457 30.2217 24.2021 30.2217ZM34.0635 34.21L38.04 36.333V36.3008L47.0928 36.3652L37.749 33.3096L34.0635 34.21Z" fill="#17191B"/>
</svg>
