<svg width="85" height="50" viewBox="0 0 85 50" fill="none" xmlns="http://www.w3.org/2000/svg">
<path d="M0 6C0 2.68629 2.68629 0 6 0H79C82.3137 0 85 2.68629 85 6V44C85 47.3137 82.3137 50 79 50H6C2.68629 50 0 47.3137 0 44V6Z" fill="#EBEBEB"/>
<path fill-rule="evenodd" clip-rule="evenodd" d="M24.6406 24.5996C24.8005 24.5677 24.9765 24.5518 25.1523 24.5518H25.1846C26.8483 24.552 28.2078 25.9598 28.208 27.6875C28.208 29.4154 26.8484 30.824 25.1846 30.8242C23.5206 30.8242 22.1602 29.4155 22.1602 27.6875C22.1603 26.5516 22.7367 25.5756 23.6006 25.0156L24 25.9756C23.4881 26.3595 23.1524 26.9836 23.1523 27.6875C23.1523 28.8555 24.0646 29.7998 25.1846 29.7998C26.3044 29.7996 27.2158 28.8554 27.2158 27.6875C27.2157 26.5198 26.3043 25.5764 25.1846 25.5762H24.96L25.2324 26.5195C25.8243 26.5516 26.2881 27.016 26.2881 27.6719C26.2881 28.3278 25.792 28.8398 25.168 28.8398C24.5441 28.8397 24.0479 28.3118 24.0479 27.6719C24.0479 27.3679 24.1762 27.0957 24.3682 26.8877L24.752 27.8154L24.4326 26.8076L23.7285 24.4883L24.5283 24.2158L24.6406 24.5996ZM22.1279 19C24.4959 20.04 25.6802 22.104 25.6162 23.752L23.9043 24.0078V23.9756C22.4483 24.5036 21.3916 25.9602 21.3916 27.6562C21.3916 28.2322 21.5202 28.7922 21.7441 29.2881L14.0957 29.3682L12.0156 28.1357C11.7916 29.6556 10.5442 30.8074 9.02441 30.8076C7.36041 30.8076 6 29.3999 6 27.6719C6.00007 25.9439 7.36045 24.5361 9.02441 24.5361C9.79225 24.5362 10.4965 24.8404 11.0244 25.3203L12.0801 24.7441H13.3115L13.0244 24.376L9.64844 22.1201L7.69629 21.4805L7.32812 20.2803L10.7842 20.4717L10.8477 21.4639L11.1836 21.3037L13.2002 21.9121L14.7998 21.9443L14.7676 21.4961L15.6162 20.9355C17.1202 19.9439 19.0565 20.5682 20.7363 20.8242L20.7842 21.8965L16.8965 23.7676L15.4238 23.416L16.3682 24.0078L17.6641 24.2158L20.8643 22.9355L23.0244 21.3838L23.6641 21.7041V21.4961L21.7119 19.5918L22.1279 19ZM9.00781 25.5762C7.8879 25.5763 6.97559 26.5205 6.97559 27.6885C6.97583 28.8562 7.88805 29.7997 9.00781 29.7998V29.8164C9.88781 29.8164 10.6241 29.2398 10.9121 28.4238L9.23242 28.8398C9.15242 28.8558 9.08781 28.8564 9.00781 28.8564C8.38406 28.8563 7.88794 28.3282 7.8877 27.6885C7.8877 27.1446 8.23991 26.7125 8.71973 26.5684L10.0322 25.8643C9.72823 25.6723 9.37581 25.5762 9.00781 25.5762ZM13.8877 27.5596L15.8564 28.6162V28.5996L20.3359 28.6318L15.7119 27.1123L13.8877 27.5596Z" fill="#17191B"/>
</svg>
