<svg width="85" height="50" viewBox="0 0 85 50" fill="none" xmlns="http://www.w3.org/2000/svg">
<path d="M0 6C0 2.68629 2.68629 0 6 0H79C82.3137 0 85 2.68629 85 6V44C85 47.3137 82.3137 50 79 50H6C2.68629 50 0 47.3137 0 44V6Z" fill="#EBEBEB"/>
<path d="M39.5815 27.668C39.5815 26.404 40.6215 25.38 41.9175 25.38C43.2135 25.38 44.2535 26.404 44.2535 27.668C44.2535 28.932 43.2135 29.956 41.9175 29.956C40.6215 29.956 39.5815 28.932 39.5815 27.668ZM28.3975 22.196L28.1575 23.124L20.8295 22.612L20.3655 21.044L18.9895 21.204L19.3895 22.5L18.1415 22.42L16.4135 21.444L19.1655 20.708C23.1015 20.196 26.3655 20.772 30.0295 21.988L28.3975 22.18V22.196ZM23.7895 24.34H21.3415L21.2295 23.956V23.732H23.7895V24.34ZM11.8855 27.668C11.8855 26.404 12.9415 25.38 14.2215 25.38C15.5015 25.38 16.5575 26.404 16.5575 27.668C16.5575 28.932 15.5015 29.956 14.2215 29.956C12.9415 29.956 11.8855 28.932 11.8855 27.668ZM49.4695 26.676L47.2135 26.708L46.1575 26.084L45.8215 25.188L48.2535 25.332L46.9575 24.404L35.3255 22.516L29.1175 19.988C24.6375 18.852 20.7335 18.596 17.2135 19.748L9.29347 21.86L7.56547 22.004C7.34147 22.452 7.10147 22.916 6.86147 23.38L11.1015 23.636L10.3175 24.772H6.25347C5.99747 25.524 5.88547 26.276 6.15747 27.06L7.48547 29.364L11.0535 29.94C11.7895 30.9 12.9095 31.556 14.2215 31.556C15.3095 31.556 16.2855 31.124 17.0055 30.436H39.1175C39.8375 31.124 40.8295 31.556 41.9175 31.556C43.0055 31.556 43.9815 31.124 44.7015 30.436H48.4615L49.0695 29.988L49.2295 29.316L48.7495 29.284L48.5575 28.836L49.3895 28.468L49.4535 26.644L49.4695 26.676Z" fill="#17191B"/>
</svg>
