<svg width="1107" height="145" viewBox="0 0 1107 145" fill="none" xmlns="http://www.w3.org/2000/svg">
<path d="M229.642 0.5V143.509H179.816V0.5H229.642Z" stroke="black"/>
<path d="M50.041 0.5H166.059V22.7344H50.3252V61.5371H122.549V83.7705H50.3252V143.509H0.5V49.75C0.500148 22.7574 22.3245 0.844788 49.4004 0.503906L50.041 0.5Z" stroke="black"/>
<path d="M305.681 0.5V121.274H389.494V143.509H255.832V0.5H305.681Z" stroke="black"/>
<path d="M483.209 0.5H546.288V22.7344H483.209C471.733 22.7344 464.359 23.7661 459.316 25.7646C454.237 27.778 451.55 30.762 449.428 34.5596V34.5605C445.917 40.8671 444.614 46.7659 444.614 66.3262C444.614 72.4833 444.477 78.2797 444.729 83.626C444.981 88.9779 445.625 93.9233 447.205 98.4004C450.384 107.405 457.31 114.404 472.085 119.126H472.086C477.497 120.844 482.24 121.213 485.298 121.247V121.274H552.63V143.509H455.09C449.321 143.509 432.152 144.962 415.257 128.165C406.832 119.789 402.216 107.546 399.713 95.752C397.212 83.968 396.832 72.6968 396.832 66.3262C396.832 53.6284 400.804 36.4809 409.606 24.5703C418.131 13.0364 429.214 7.47501 438.065 5.16211L438.915 4.94824C450.024 2.24578 470.738 0.500042 483.209 0.5Z" stroke="black"/>
<path d="M689.618 0.5H750.107V143.509H642.387L646.523 121.274H700.282V52.8682L700.307 38.3232L700.308 37.8223H669.146C663.416 37.8223 659.64 39.1988 656.738 41.792C654.225 44.0377 652.405 47.167 650.513 50.96L649.695 52.625L605.562 143.509H560.366L612.684 43.6543C626.907 16.4986 655.388 0.5 689.618 0.5Z" stroke="black"/>
<path d="M941.728 0.5C947.835 0.500001 952.861 0.553784 957.021 1.01074C960.921 1.43906 964.019 2.2178 966.508 3.61035L966.997 3.89746C967.422 4.17885 967.831 4.45008 968.215 4.74219L968.228 4.75195L968.241 4.76172C968.251 4.76794 968.266 4.77941 968.306 4.8125C968.331 4.83321 968.373 4.86625 968.421 4.90039V4.90234C974.487 9.70141 977.187 17.2796 976.097 25.4883C975.006 33.6999 970.115 42.5435 960.986 49.7832C951.475 57.3221 937.774 65.3396 926.432 71.4795C920.764 74.5473 915.693 77.1423 912.038 78.9707C910.211 79.8849 908.738 80.6079 907.723 81.1016C907.215 81.3484 906.821 81.5381 906.555 81.666C906.422 81.7299 906.32 81.7781 906.252 81.8105C906.218 81.8268 906.192 81.8395 906.175 81.8477C906.166 81.8517 906.159 81.8544 906.155 81.8564L906.149 81.8594L905.285 82.2695L906.115 82.7451L1012.12 143.509H942.326L840.831 77.5479C841.269 77.3863 841.855 77.1707 842.57 76.9043C844.285 76.266 846.753 75.3394 849.766 74.1865C855.791 71.8807 863.997 68.6682 872.721 65.043C881.443 61.4181 890.687 57.3788 898.785 53.418C906.873 49.4623 913.855 45.5676 918.028 42.2305L918.05 42.2139L918.068 42.1953C922.812 38.8468 923.626 32.8091 921.606 28.7939C919.593 24.7666 915.685 22.711 911.897 22.7109H839.149L839.15 23.2109L839.182 77.0869L838.608 77.2969L839.182 77.6689L839.222 143.485H789.396L789.325 19.125V18.8428L789.083 18.6973L758.803 0.5H941.728Z" stroke="black"/>
<rect x="1014.5" y="61.248" width="92" height="18" stroke="black"/>
</svg>
